<svg xmlns="http://www.w3.org/2000/svg" xmlns:xlink="http://www.w3.org/1999/xlink" width="446" height="389" viewBox="0 0 446 389">
    <defs>
        <path id="a" d="M.469.113h1.937v1.722H.469z"/>
        <path id="c" d="M.469.113h1.937v1.722H.469z"/>
        <linearGradient id="e" x1="45.447%" x2="50%" y1="100%" y2="24.626%">
            <stop offset="0%" stop-color="#F4E11A"/>
            <stop offset="48.53%" stop-color="#F4E11A" stop-opacity=".377"/>
            <stop offset="100%" stop-color="#F4E11A" stop-opacity="0"/>
        </linearGradient>
        <linearGradient id="f" x1="50%" x2="50%" y1="0%" y2="100%">
            <stop offset="0%" stop-color="#FEC7DA"/>
            <stop offset="100%" stop-color="#EB407A"/>
        </linearGradient>
        <linearGradient id="g" x1="46.147%" x2="54.044%" y1="-4.447%" y2="100%">
            <stop offset="0%" stop-color="#EB407A"/>
            <stop offset="100%" stop-color="#BC3563"/>
        </linearGradient>
        <linearGradient id="h" x1="10.752%" y1="27.915%" y2="74.005%">
            <stop offset="0%" stop-color="#FEC7DA"/>
            <stop offset="100%" stop-color="#EB407A"/>
        </linearGradient>
    </defs>
    <g fill="none" fill-rule="evenodd">
        <g opacity=".9">
            <path fill="#F5E11A" d="M263 106.5a1.5 1.5 0 1 1-3 0 1.5 1.5 0 0 1 3 0M287 84.5a1.5 1.5 0 1 1-3 .001 1.5 1.5 0 0 1 3-.001M326 95.5a1.5 1.5 0 1 1-3.001-.001A1.5 1.5 0 0 1 326 95.5M350 150a1.001 1.001 0 1 1-2.002-.002A1.001 1.001 0 0 1 350 150M336 107a1 1 0 1 1-2.001-.001A1 1 0 0 1 336 107M349 63a1 1 0 1 1-2.002-.001 1 1 0 0 1 2.002 0M380 71a1 1 0 1 1-2.001-.001A1 1 0 0 1 380 71M302 43a1 1 0 1 1-2 0 1 1 0 0 1 2 0M259 177a1 1 0 1 1-2 0 1 1 0 0 1 2 0M382 226a1 1 0 1 1-2.001-.001A1 1 0 0 1 382 226"/>
            <g transform="translate(382 148)">
                <mask id="b" fill="#fff">
                    <use xlink:href="#a"/>
                </mask>
                <path fill="#F5E11A" d="M2.407.974c0 .476-.435.861-.97.861-.535 0-.968-.385-.968-.861s.433-.861.968-.861c.535 0 .97.385.97.861" mask="url(#b)"/>
            </g>
            <path fill="#F5E11A" d="M372 112a1.001 1.001 0 1 1-2.002-.002A1.001 1.001 0 0 1 372 112"/>
        </g>
        <g opacity=".9">
            <path fill="#F5E11A" d="M182.703 162.663a1.5 1.5 0 1 0 2.819-1.027 1.5 1.5 0 0 0-2.82 1.027M152.626 150.197a1.5 1.5 0 1 0 2.818-1.024 1.5 1.5 0 0 0-2.818 1.024M119.74 173.873a1.5 1.5 0 1 0 2.82-1.027 1.5 1.5 0 0 0-2.82 1.027M115.827 233.294a1.001 1.001 0 1 0 1.881-.686 1.001 1.001 0 0 0-1.88.686M114.276 188.1a1 1 0 1 0 1.88-.686 1 1 0 0 0-1.88.686M87.011 151.199a1 1 0 1 0 1.88-.685 1 1 0 0 0-1.88.685M60.617 169.32a1 1 0 1 0 1.88-.686 1 1 0 0 0-1.88.686M124.337 116.33a1 1 0 1 0 1.88-.685 1 1 0 0 0-1.88.686M210.574 227.543a1 1 0 1 0 1.88-.686 1 1 0 0 0-1.88.686M111.75 315.656a1 1 0 1 0 1.88-.685 1 1 0 0 0-1.88.685"/>
            <g transform="scale(-1 1) rotate(20 -729.782 -120.057)">
                <mask id="d" fill="#fff">
                    <use xlink:href="#c"/>
                </mask>
                <path fill="#F5E11A" d="M2.407.974c0 .476-.435.861-.97.861-.535 0-.968-.385-.968-.861s.433-.861.968-.861c.535 0 .97.385.97.861" mask="url(#d)"/>
            </g>
            <path fill="#F5E11A" d="M82.157 205.11a1.001 1.001 0 1 0 1.881-.686 1.001 1.001 0 0 0-1.88.686"/>
        </g>
        <path fill="url(#e)" d="M41.38 134h259.995l-90.417 235h-76.667z" transform="rotate(-30 47.246 304.24)"/>
        <path fill="url(#e)" d="M242.348 37.376h259.994l-90.416 235h-76.667z" transform="rotate(20 506.805 5.443)"/>
        <path fill="#FFF" d="M236.993 281.859c9.221 25.335-3.862 53.355-29.22 62.585-25.36 9.23-53.392-3.825-62.613-29.16-9.221-25.335 3.86-53.355 29.22-62.585 25.359-9.23 53.392 3.826 62.613 29.16z"/>
        <path fill="url(#f)" d="M92.259 132.355c-22.434 0-40.62-18.169-40.62-40.58 0-22.413 18.186-40.581 40.62-40.581 22.433 0 40.62 18.168 40.62 40.58s-18.187 40.58-40.62 40.58m68.873-26.821l23.386-4.652-.915-24.936-22.742-2.815a70.062 70.062 0 0 0-7.978-19.42l13.064-18.139-17.692-17.612-17.588 12.737a70.252 70.252 0 0 0-22.505-9.546L104.747 0H79.771l-3.415 21.15a70.25 70.25 0 0 0-22.717 9.686L36.002 18.157l-17.63 17.675 13.133 18.099a70.038 70.038 0 0 0-8.884 24.237l-22.62 4.5.914 24.936 23.805 2.946a70.183 70.183 0 0 0 8.165 17.553L18.57 147.977l17.692 17.613 20.383-14.761a70.198 70.198 0 0 0 19.08 7.67l4.045 25.05h24.976l4.044-25.05a70.192 70.192 0 0 0 19.292-7.796l20.433 14.688 17.63-17.675-14.38-19.817a70.086 70.086 0 0 0 9.366-22.366" transform="rotate(-20 725.849 -82.527)"/>
        <path stroke="url(#g)" stroke-width="2" d="M92.885 44.935c-25.852 0-46.884 21.012-46.884 46.84 0 25.826 21.032 46.838 46.884 46.838 25.853 0 46.884-21.012 46.884-46.838 0-25.828-21.031-46.84-46.884-46.84zM85.733 177.29l-3.86-23.903-4.058-.973a63.932 63.932 0 0 1-17.378-6.987l-3.53-2.064-19.375 14.031-10.134-10.088 13.693-19.011-2.316-3.586a63.92 63.92 0 0 1-7.438-15.988l-1.188-3.882-22.543-2.791-.524-14.283 21.63-4.302.714-4.262a63.607 63.607 0 0 1 8.091-22.074l2.103-3.538-12.418-17.115L37.3 26.351l16.797 12.074 3.6-2.353a63.823 63.823 0 0 1 20.69-8.823l4.109-.944 3.237-20.047h14.305l3.237 20.047 4.108.944a63.836 63.836 0 0 1 20.499 8.696l3.607 2.34 16.75-12.13 10.134 10.087-12.355 17.153 2.117 3.53a63.766 63.766 0 0 1 7.266 17.687l1.026 4.197 21.738 2.692.523 14.283-22.142 4.404-.897 3.964a63.697 63.697 0 0 1-8.531 20.371l-2.304 3.595 13.755 18.956-10.098 10.124-19.422-13.96-3.522 2.075a63.916 63.916 0 0 1-17.57 7.101l-4.06.973-3.859 23.903H85.733z" transform="rotate(-20 725.849 -82.527)"/>
        <g>
            <path fill="#EB407A" d="M192.21 302.071l2.55 13.123a4.942 4.942 0 0 0 1.446-.87l9.464-8.32c1.385-1.216 2.023-3.11 1.667-4.941l-2.42-12.454a5.126 5.126 0 0 0-.51-1.42l-10.282 9.065c-2.053 2.18-2.252 3.904-1.916 5.817"/>
            <path fill="#FF80AB" d="M208.16 283.88l-3.752 3.308c.234.442.41.917.508 1.42l2.421 12.455c.356 1.83-.283 3.725-1.667 4.942l-9.464 8.319c-.433.38-.926.663-1.445.87l.963 4.957a6.145 6.145 0 0 0 2-1.164l12.291-10.804c1.711-1.505 2.501-3.847 2.061-6.112l-3.143-16.172a6.382 6.382 0 0 0-.774-2.018"/>
            <path fill="#EB407A" d="M190.434 298.136c.428-1.17 1.193-2.258 2.377-3.387l10.349-9.125a5.058 5.058 0 0 0-1.64-.973l-11.892-4.167a5.086 5.086 0 0 0-5.038.982l-9.421 8.306c-.496.437-.88.97-1.17 1.548l12.955 4.562c1.528.607 2.646 1.329 3.48 2.254"/>
            <path fill="#FF80AB" d="M175.169 289.771l9.42-8.305a5.085 5.085 0 0 1 5.04-.983l11.89 4.168c.614.215 1.162.556 1.641.972l3.746-3.302a6.26 6.26 0 0 0-2.174-1.317l-15.443-5.413a6.29 6.29 0 0 0-6.23 1.215l-12.236 10.787a6.353 6.353 0 0 0-1.531 2.07l4.707 1.657c.29-.579.673-1.11 1.17-1.549M191.167 315.3l-11.847-4.173c-1.735-.61-3.034-2.126-3.39-3.955l-2.422-12.462a5.171 5.171 0 0 1-.066-1.468l-4.72-1.661c-.1.713-.089 1.424.046 2.118l3.146 16.186c.44 2.263 2.047 4.137 4.193 4.891l15.385 5.418c.729.257 1.495.363 2.285.333l-.964-4.96a4.932 4.932 0 0 1-1.646-.267"/>
            <path fill="#EB407A" d="M186.287 297.764l-12.845-4.521a5.17 5.17 0 0 0 .065 1.466l2.423 12.463c.356 1.83 1.655 3.346 3.39 3.956l11.847 4.172a4.937 4.937 0 0 0 1.645.267l-2.55-13.121c-.404-1.897-1.234-3.421-3.975-4.682"/>
        </g>
        <g>
            <path fill="#FFF" d="M329.1 207.045c-13.323 15.327-36.566 16.934-51.914 3.592-15.35-13.343-16.991-36.583-3.668-51.91 13.323-15.326 36.566-16.935 51.915-3.592 15.349 13.342 16.99 36.583 3.668 51.91z"/>
            <path fill="url(#h)" d="M69.527 99.695c-16.907 0-30.612-13.685-30.612-30.566 0-16.882 13.705-30.568 30.612-30.568 16.906 0 30.61 13.686 30.61 30.568 0 16.881-13.704 30.566-30.61 30.566m51.903-20.203l17.624-3.504-.69-18.783-17.138-2.12a52.76 52.76 0 0 0-6.013-14.628l9.845-13.663-13.333-13.267-13.254 9.595a52.955 52.955 0 0 0-16.96-7.19L78.938 0H60.115L57.542 15.93a52.954 52.954 0 0 0-17.12 7.296l-13.29-9.55L13.844 26.99l9.897 13.633a52.74 52.74 0 0 0-6.695 18.256L0 62.27l.69 18.783 17.939 2.219a52.853 52.853 0 0 0 6.153 13.221l-10.787 14.97 13.333 13.267 15.36-11.119a52.916 52.916 0 0 0 14.38 5.779l3.047 18.868h18.823l3.047-18.868a52.911 52.911 0 0 0 14.54-5.873l15.397 11.063 13.286-13.313-10.836-14.927a52.778 52.778 0 0 0 7.058-16.847" transform="rotate(41 33.78 436.404)"/>
            <path stroke="url(#g)" stroke-width="1.7" d="M69.999 33.847c-19.483 0-35.333 15.827-35.333 35.281S50.516 104.41 70 104.41c19.482 0 35.332-15.827 35.332-35.28 0-19.455-15.85-35.282-35.332-35.282zm-5.39 99.695l-2.91-18.004-3.057-.733a48.193 48.193 0 0 1-13.096-5.263l-2.66-1.555-14.601 10.57-7.638-7.6 10.32-14.32-1.746-2.7a48.137 48.137 0 0 1-5.605-12.044l-.896-2.924-16.988-2.102-.395-10.758 16.3-3.241.539-3.21a47.897 47.897 0 0 1 6.097-16.628l1.585-2.665L20.5 27.474l7.61-7.626 12.659 9.095 2.712-1.772a48.11 48.11 0 0 1 15.593-6.646l3.096-.711 2.44-15.1h10.78l2.44 15.1 3.096.711a48.12 48.12 0 0 1 15.447 6.55l2.719 1.763 12.622-9.138 7.637 7.6-9.31 12.92 1.595 2.659a48.019 48.019 0 0 1 5.476 13.322l.773 3.162 16.382 2.027.394 10.758-16.686 3.318-.677 2.986a47.967 47.967 0 0 1-6.429 15.344l-1.735 2.708 10.365 14.278-7.61 7.626-14.636-10.515-2.654 1.563a48.18 48.18 0 0 1-13.242 5.349l-3.058.733-2.909 18.004H64.61z" transform="rotate(41 33.78 436.404)"/>
            <g>
                <path fill="#EB407A" d="M301.22 185.777l-1.774 9.129c.382 0 .767-.055 1.14-.189l8.136-2.926c1.19-.428 2.083-1.485 2.33-2.76l1.685-8.662c.068-.351.078-.703.045-1.049l-8.848 3.196c-1.861.877-2.433 1.939-2.713 3.26"/>
                <path fill="#FF80AB" d="M316.01 178.154l-3.228 1.166c.034.346.023.698-.045 1.048l-1.684 8.664c-.248 1.274-1.141 2.331-2.331 2.76l-8.136 2.925a3.34 3.34 0 0 1-1.14.189l-.67 3.448c.54.02 1.065-.055 1.566-.235l10.567-3.8c1.47-.53 2.576-1.837 2.882-3.413l2.187-11.25c.096-.494.103-.997.032-1.502"/>
                <path fill="#EB407A" d="M301.113 182.778c.573-.645 1.338-1.149 2.379-1.572l8.904-3.218a3.476 3.476 0 0 0-.786-1.051l-6.449-5.76a3.418 3.418 0 0 0-3.441-.668l-8.106 2.929a3.476 3.476 0 0 0-1.14.698l7.019 6.289c.81.786 1.331 1.54 1.62 2.353"/>
                <path fill="#FF80AB" d="M293.614 173.438l8.106-2.929a3.418 3.418 0 0 1 3.442.667l6.448 5.76c.332.298.59.659.786 1.052l3.223-1.164a4.304 4.304 0 0 0-1.035-1.412l-8.374-7.482a4.228 4.228 0 0 0-4.256-.824l-10.527 3.803a4.37 4.37 0 0 0-1.503.94l2.55 2.286a3.484 3.484 0 0 1 1.14-.697M297.145 194.046l-6.418-5.752c-.94-.842-1.372-2.156-1.124-3.428l1.685-8.67a3.66 3.66 0 0 1 .338-.964l-2.558-2.291a4.538 4.538 0 0 0-.518 1.379l-2.189 11.26c-.306 1.574.227 3.198 1.39 4.24l8.336 7.47c.395.353.852.62 1.36.804l.67-3.45a3.33 3.33 0 0 1-.972-.598"/>
                <path fill="#EB407A" d="M298.585 181.467l-6.96-6.235c-.153.301-.27.623-.337.964l-1.685 8.67c-.248 1.272.183 2.586 1.124 3.428l6.418 5.752c.291.26.622.455.972.598l1.775-9.129c.234-1.328.102-2.526-1.307-4.048"/>
            </g>
        </g>
        <g>
            <path fill="#FFF" d="M329.934 314.775c-9.21 7.196-22.549 5.512-29.793-3.76-7.245-9.272-5.65-22.622 3.56-29.818 9.21-7.196 22.549-5.513 29.793 3.76 7.244 9.272 5.65 22.622-3.56 29.818z"/>
            <path fill="url(#h)" d="M40.226 57.379c-9.781 0-17.71-7.877-17.71-17.593 0-9.716 7.929-17.592 17.71-17.592s17.71 7.876 17.71 17.592c0 9.716-7.929 17.593-17.71 17.593m30.03-11.628l10.196-2.017-.399-10.81-9.915-1.22a30.277 30.277 0 0 0-3.479-8.42l5.696-7.863-7.714-7.636-7.668 5.522A30.724 30.724 0 0 0 47.16 9.17L45.67 0h-10.89l-1.489 9.17a30.723 30.723 0 0 0-9.905 4.199l-7.69-5.497-7.686 7.663 5.725 7.846a30.254 30.254 0 0 0-3.873 10.507L0 35.838.4 46.648l10.38 1.278a30.346 30.346 0 0 0 3.56 7.61L8.096 64.15l7.714 7.636 8.887-6.4a30.708 30.708 0 0 0 8.32 3.326l1.763 10.86h10.89l1.763-10.86a30.705 30.705 0 0 0 8.412-3.38l8.909 6.367 7.687-7.662-6.27-8.591a30.29 30.29 0 0 0 4.084-9.696" transform="rotate(52 -85.966 452.653)"/>
            <path stroke="url(#g)" stroke-width="1.3" d="M40.5 19.48c-11.273 0-20.443 9.11-20.443 20.306 0 11.197 9.17 20.306 20.442 20.306s20.442-9.11 20.442-20.306c0-11.197-9.17-20.306-20.442-20.306zM37.38 76.86l-1.682-10.363-1.77-.421a27.968 27.968 0 0 1-7.577-3.03l-1.539-.894-8.447 6.083-4.419-4.374 5.97-8.242-1.01-1.554a27.638 27.638 0 0 1-3.243-6.931l-.518-1.683-9.829-1.21-.228-6.192 9.43-1.865.312-1.848a27.476 27.476 0 0 1 3.528-9.57l.917-1.533-5.415-7.42 4.403-4.388 7.324 5.234 1.57-1.02a27.912 27.912 0 0 1 9.021-3.825l1.791-.41 1.412-8.69h6.237l1.411 8.69 1.792.41a27.919 27.919 0 0 1 8.937 3.77l1.573 1.014 7.303-5.259 4.419 4.374-5.387 7.436.923 1.53a27.556 27.556 0 0 1 3.168 7.668l.447 1.82 9.478 1.166.229 6.192-9.655 1.91-.391 1.718a27.529 27.529 0 0 1-3.72 8.831l-1.004 1.559 5.997 8.218-4.403 4.389-8.468-6.053-1.536.9a27.96 27.96 0 0 1-7.66 3.079l-1.77.421-1.683 10.363h-6.237z" transform="rotate(52 -85.966 452.653)"/>
            <g>
                <path fill="#EB407A" d="M316.8 300.301l-2.177 5.39c.24.048.49.063.74.027l5.463-.775a2.282 2.282 0 0 0 1.789-1.403l2.066-5.114c.084-.207.131-.423.15-.64l-5.943.852c-1.274.305-1.757.886-2.087 1.663"/>
                <path fill="#FF80AB" d="M327 297.476l-2.169.31a2.208 2.208 0 0 1-.15.64l-2.066 5.114a2.283 2.283 0 0 1-1.789 1.403l-5.463.775c-.25.036-.499.021-.74-.027l-.822 2.035c.338.08.677.1 1.014.053l7.095-1.007a2.824 2.824 0 0 0 2.212-1.735l2.683-6.642c.118-.292.18-.6.194-.92"/>
                <path fill="#EB407A" d="M317.081 298.444c.436-.324.976-.538 1.68-.667l5.982-.858a2.214 2.214 0 0 0-.373-.745l-3.392-4.353a2.252 2.252 0 0 0-2.09-.843l-5.445.78a2.212 2.212 0 0 0-.799.286l3.69 4.75c.42.585.66 1.115.747 1.65"/>
                <path fill="#FF80AB" d="M313.443 291.758l5.444-.78a2.251 2.251 0 0 1 2.09.843l3.393 4.353c.175.224.295.479.373.745l2.165-.31a2.739 2.739 0 0 0-.489-.998l-4.404-5.653a2.785 2.785 0 0 0-2.585-1.043l-7.07 1.014a2.78 2.78 0 0 0-1.057.389l1.341 1.726c.244-.142.512-.244.799-.286M313.274 304.873l-3.374-4.344a2.282 2.282 0 0 1-.31-2.25l2.068-5.117c.081-.202.193-.385.324-.55l-1.345-1.731c-.206.236-.37.497-.486.783l-2.685 6.647a2.822 2.822 0 0 0 .383 2.781l4.382 5.641c.208.267.465.489.763.666l.823-2.037a2.179 2.179 0 0 1-.543-.49"/>
                <path fill="#EB407A" d="M315.641 297.32l-3.659-4.708a2.228 2.228 0 0 0-.324.55l-2.068 5.118a2.282 2.282 0 0 0 .31 2.249l3.374 4.344c.153.197.339.358.543.49l2.177-5.39c.302-.787.358-1.54-.353-2.653"/>
            </g>
        </g>
    </g>
</svg>
